<?xml version="1.0" encoding="UTF-8" standalone="no"?>
<svg width="196" height="26" viewBox="0 0 196 26" xmlns="http://www.w3.org/2000/svg">
  <defs>
    <linearGradient id="caffeineGradient" x1="0%" y1="0%" x2="100%" y2="0%">
      <stop offset="0%" style="stop-color:#8B4513;stop-opacity:1" />
      <stop offset="100%" style="stop-color:#D2691E;stop-opacity:1" />
    </linearGradient>
  </defs>
  <rect x="0" y="0" width="196" height="26" rx="3" ry="3" fill="url(#caffeineGradient)">
    <animate attributeName="width" from="0" to="196" dur="3s" repeatCount="1" />
  </rect>
  <!-- Coffee cup symbols -->
  <path d="M30,18 L30,8 L40,8 L40,18 C40,20 30,20 30,18 Z" fill="#ffffff" opacity="0.8"/>
  <rect x="29" y="6" width="12" height="2" rx="1" fill="#ffffff" opacity="0.8"/>
  <path d="M60,18 L60,8 L70,8 L70,18 C70,20 60,20 60,18 Z" fill="#ffffff" opacity="0.7"/>
  <rect x="59" y="6" width="12" height="2" rx="1" fill="#ffffff" opacity="0.7"/>
  <path d="M90,18 L90,8 L100,8 L100,18 C100,20 90,20 90,18 Z" fill="#ffffff" opacity="0.6"/>
  <rect x="89" y="6" width="12" height="2" rx="1" fill="#ffffff" opacity="0.6"/>
</svg>